<?xml version="1.0" encoding="utf-8"?>
<!-- Generator: Adobe Illustrator 24.2.1, SVG Export Plug-In . SVG Version: 6.00 Build 0)  -->
<svg version="1.1" id="Layer_1DigitalStudio" xmlns="http://www.w3.org/2000/svg" xmlns:xlink="http://www.w3.org/1999/xlink" x="0px" y="0px"
	 viewBox="0 0 298.1 470.1" style="enable-background:new 0 0 298.1 470.1;" xml:space="preserve">
<style type="text/css">
	.st0{fill:none;stroke:#000000;stroke-width:1;stroke-miterlimit:4;}
	.st1{fill:none;stroke:#000000;stroke-width:1.1001;}
</style>
<g>
	<path class="st1" d="M12,396.6l27.1,3.6c10.2,1.4,17.8,4.6,22.8,9.7c5,5.1,6.9,12.2,5.7,21.2l0,0.2c-0.4,3-1.1,5.6-2.1,8
		c-1,2.4-2.2,4.5-3.7,6.3c-3.1,3.5-7.1,5.9-12.1,7.2s-10.8,1.5-17.3,0.6l-27.5-3.7L12,396.6z M27.8,413.9L24.7,437l8.7,1.2
		c5.3,0.7,9.1,0.3,11.5-1.2c2.4-1.5,3.9-4.3,4.4-8.2l0-0.1c0.6-4.2-0.2-7.3-2.1-9.3c-2-2.1-5.6-3.5-11-4.2L27.8,413.9z"/>
	<path class="st1" d="M75,407.4c-1.7-1-2.7-2.9-3-5.8c-0.3-2.9,0.4-5,2.1-6.3c1.7-1.3,4.2-2.2,7.6-2.5c3.4-0.3,6,0,8,0.9
		c1.9,1,3,2.9,3.3,5.8c0.3,2.8-0.4,4.9-2,6.3c-1.6,1.4-4.2,2.3-7.7,2.6C79.4,408.7,76.7,408.4,75,407.4z M74.2,412.3
		c0.2,0.1,0.4,0.3,0.8,0.4s0.9,0.2,1.4,0.2c1.1,0.1,2.3,0.1,3.7,0.1c1.3,0,2.5-0.1,3.5-0.2c0.5-0.1,1.1-0.1,1.7-0.2
		c0.6-0.1,1.2-0.2,1.8-0.3c1.3-0.3,2.4-0.6,3.5-0.9c1-0.3,1.7-0.7,2-1l4.4,43l-18.4,1.9L74.2,412.3z"/>
	<path class="st1" d="M163.8,450.1c-3.6,4.1-10.3,7.8-20.2,11.1l-3.8,1.3c-3.1,1-5.9,1.9-8.5,2.6c-2.5,0.7-4.7,1.1-6.6,1.4
		c-3.8,0.5-6.6,0.4-8.5-0.4c-1.9-0.8-3.2-2.2-3.8-4c-0.8-2.3-0.3-4.5,1.3-6.6c1.7-2.1,5-4.2,10-6.3c-4.8,1.4-8.6,1.9-11.2,1.3
		c-2.6-0.5-4.4-2.2-5.3-4.9c-0.8-2.5-0.5-4.9,1-7.1c1.5-2.3,4.5-4.4,9.1-6.4c-4.3,0.7-7.7,0.5-10.2-0.5c-2.5-1.1-4.4-3.3-5.5-6.7
		c-1.5-4.4-0.6-8.5,2.6-12.4c3.2-3.9,9.1-7.3,17.8-10.2l2.3-0.8c1-0.3,1.9-0.7,2.6-1c0.7-0.3,1.4-0.7,1.9-1.1c1-0.7,1.6-1.6,1.8-2.7
		c0.2-1.1-0.1-2.6-0.7-4.5l-0.8-2.3l17.9-6l0.4,1.1c0.8,2.3,1.1,4.2,1,5.7c-0.1,1.5-0.8,2.7-2,3.7c-1.2,1-3,2-5.4,2.9
		c-2.4,0.9-5.6,2-9.5,3.3l-5.5,1.6c2.2-0.6,4.2-1.2,6.1-1.7c1.9-0.5,3.4-0.8,4.8-1c4.9-1,8.8-0.8,11.7,0.4c2.9,1.2,4.9,3.6,6.2,7.3
		c1.5,4.6,0.7,8.6-2.4,12.1c-3.1,3.5-9.2,6.8-18.2,9.8l-6.6,2.2c-1.4,0.5-2.6,0.9-3.6,1.3c-1,0.4-1.8,0.7-2.5,1
		c-1.3,0.6-2.2,1.1-2.5,1.6c-0.3,0.5-0.4,0.9-0.3,1.5c0.2,0.7,1,0.9,2.3,0.7c1.3-0.2,3.9-0.9,7.6-2.2l13-4.4
		c7.6-2.5,13.3-3.4,17.1-2.5c3.9,0.9,6.6,3.5,8.1,8l0.1,0.2C168.3,441.4,167.4,446,163.8,450.1z M137.3,416.1
		c1.4-1.1,1.9-2.3,1.5-3.7c-0.5-1.4-1.6-2.2-3.3-2.3c-1.7-0.1-4.5,0.5-8.3,1.8l-1.1,0.4c-3.5,1.2-5.8,2.4-7,3.5s-1.6,2.4-1.1,3.8
		c0.5,1.4,1.6,2.1,3.3,2.1c1.7,0,4.4-0.7,8.1-1.9C133.2,418.4,135.9,417.2,137.3,416.1z M142,450.2c1.6-0.5,2.9-1,4-1.5
		c1.1-0.5,2.1-0.9,2.9-1.3c1.5-0.9,2.5-1.7,3-2.4c0.4-0.7,0.6-1.4,0.3-2l-0.1-0.2c-0.1-0.3-0.2-0.5-0.4-0.8
		c-0.2-0.2-0.4-0.4-0.7-0.6c-0.5-0.3-1.3-0.3-2.5-0.2c-1.2,0.2-2.9,0.6-5.2,1.4l-9.1,3.1c-3.1,1-5.2,2-6.3,2.9
		c-1.1,0.9-1.5,2-1.1,3.1l0,0.1c0.4,1.2,1.6,1.7,3.5,1.5c1.9-0.2,5-0.9,9.2-2.4L142,450.2z"/>
	<path class="st1" d="M151.3,385.3c-2-0.2-3.7-1.5-5.2-3.9c-1.5-2.5-1.8-4.7-0.9-6.6c0.9-1.9,2.8-3.8,5.7-5.5
		c2.9-1.8,5.4-2.6,7.6-2.6c2.2,0.1,4,1.3,5.5,3.8c1.5,2.4,1.8,4.6,0.9,6.5c-0.9,2-2.8,3.8-5.8,5.7
		C155.9,384.6,153.3,385.5,151.3,385.3z M152.7,390.1c0.2,0,0.5,0,0.9,0c0.4-0.1,0.9-0.2,1.4-0.4c1-0.4,2.2-0.9,3.4-1.5
		c1.2-0.6,2.2-1.1,3.1-1.7c0.5-0.3,0.9-0.6,1.4-0.9c0.5-0.3,1-0.7,1.5-1c1-0.8,1.9-1.6,2.7-2.3c0.8-0.7,1.3-1.3,1.4-1.8l22.5,36.9
		l-15.8,9.6L152.7,390.1z"/>
	<path class="st1" d="M232.9,382.7l-9.1,8.2c-2,1.8-3.9,3.3-5.7,4.4c-1.8,1.1-3.5,1.9-5.1,2.4c-3.2,0.9-6.3,0.6-9.3-0.9
		c-3-1.5-6.2-4.2-9.7-8l-4.8-5.3l-7.5,6.8l-9.3-10.3c1-1,2-2,2.9-2.9c0.9-0.9,1.6-1.8,2.2-2.7c0.7-1.1,1.1-2.1,1.2-3.1
		c0-0.9-0.2-2-0.7-3.2c-0.4-1.1-1.1-2.2-1.9-3.3c-0.9-1.1-1.7-2.2-2.5-3.1l10.3-9.3l8,8.9l11.9-10.7l9.9,10.9l-11.9,10.7l3.7,4.1
		c0.8,0.9,1.5,1.6,2.2,2.3c0.7,0.6,1.3,1.1,1.9,1.4c1.2,0.6,2.3,0.7,3.5,0.2c1.2-0.5,2.7-1.6,4.4-3.2l5.6-5L232.9,382.7z"/>
	<path class="st1" d="M256.2,334.7c1.7,3,2.3,6.5,2,10.6c-0.3,4.1-2,8.5-5,13.4c-3.1,4.9-6.2,8.1-9.5,9.5c-3.3,1.4-6.6,1-10-1.1
		l-0.1,0c-2.2-1.4-3.7-3-4.7-4.9s-1.3-4.2-1-6.8c0.1-0.8,0.2-1.6,0.4-2.3c0.2-0.8,0.4-1.6,0.6-2.3c0.5-1.6,1.2-3.5,2.2-5.7
		c1-2.2,2.3-4.9,4.1-8.1c0.8-1.6,1.5-2.9,2.1-4.1c0.6-1.2,1-2.2,1.4-3c0.8-1.7,1.1-2.9,1.1-3.7c0-0.8-0.3-1.3-0.9-1.7
		c-0.8-0.5-1.9-0.5-3.1,0.1c-1.2,0.6-2.7,2.2-4.4,5c-2.1,3.3-3.2,5.9-3.3,7.8c-0.1,1.8,0.5,3.2,1.8,4.2l-9.8,15.6
		c-4.6-3.6-6.7-8.2-6.4-13.9c0.3-5.6,2.7-12.1,7.2-19.3c4.7-7.6,9.5-12.4,14.2-14.6c4.7-2.2,10-1.4,15.9,2.3l21.7,13.6l-8.1,12.9
		L256.2,334.7z M249.2,343.4c0.5-1.2,0.8-2.3,0.9-3.5c0.4-2.3,0.3-4.5-0.2-6.4c-0.6-1.9-1.6-3.3-3-4.2l-0.4-0.2
		c0.2,0.8,0.1,2-0.3,3.4c-0.4,1.5-1.1,3.3-2.1,5.4c-1.2,2.5-2.1,4.4-2.7,5.7c-0.5,1.4-0.8,2.4-0.8,3.2c0,0.7,0.1,1.3,0.3,1.8
		c0.2,0.5,0.6,0.9,1.1,1.2l0.1,0c0.8,0.5,1.7,0.5,2.6,0.1c0.9-0.5,1.9-1.5,3-3.2C248.2,345.7,248.8,344.6,249.2,343.4z"/>
	<path class="st1" d="M277.3,310.5l-54-18.9l5.9-17l54,18.9L277.3,310.5z"/>
	<path class="st1" d="M290.2,252.5c-2.5,5-6.7,8-12.4,8.9l0.5-19.1c1.6-0.6,2.7-1.8,3.4-3.5c0.7-1.7,1.1-4.4,1.2-8.1
		c0.1-3.1-0.2-5.2-0.7-6.4c-0.6-1.2-1.3-1.8-2.3-1.8c-0.3,0-0.6,0.1-0.8,0.2c-0.3,0.2-0.5,0.4-0.7,0.8c-0.4,0.6-0.8,1.9-1,3.9
		c-0.3,2-0.5,4.9-0.8,8.7c-0.2,2.9-0.5,5.5-0.9,7.8c-0.4,2.3-0.8,4.3-1.3,6c-1,3.5-2.4,5.9-4.3,7.4c-1.8,1.5-4.2,2.2-7.2,2.1
		c-4.7-0.1-8.4-2.3-11.1-6.6c-2.7-4.3-3.9-10.7-3.6-19.1c0.2-8.3,1.6-14.7,4.2-19.3c2.6-4.6,6.5-7.7,11.7-9.2l-0.5,18.2
		c-1.6,0.6-2.7,1.8-3.4,3.8c-0.7,2-1,4.4-1.1,7.3c-0.1,3.1,0.2,5.3,0.7,6.3c0.6,1.1,1.3,1.6,2.1,1.7c0.3,0,0.6-0.1,0.9-0.3
		c0.3-0.2,0.5-0.5,0.7-0.9c0.4-0.8,0.8-2.1,1.1-4c0.3-1.9,0.6-4.6,0.8-7.9c0.2-3.1,0.5-5.8,0.9-8.3c0.4-2.4,0.8-4.5,1.4-6.3
		c1-3.5,2.5-6,4.4-7.4c1.9-1.4,4.3-2.1,7.2-2c1.5,0,3,0.3,4.4,0.8c1.4,0.5,2.6,1.3,3.8,2.2c2.3,1.9,4.1,4.9,5.3,8.9
		s1.8,9.2,1.6,15.5C294.1,241,292.7,247.5,290.2,252.5z"/>
	<path class="st1" d="M282.2,153.8l2.8,11.9c0.6,2.6,1,5,1.1,7.1c0.1,2.1,0,4-0.4,5.6c-0.7,3.2-2.5,5.8-5.3,7.7
		c-2.8,1.9-6.7,3.4-11.7,4.6l-7,1.6l2.3,9.8l-13.5,3.2c-0.4-1.4-0.8-2.7-1.2-3.9c-0.4-1.2-0.8-2.3-1.3-3.2c-0.6-1.2-1.3-2-2.1-2.5
		c-0.8-0.5-1.8-0.8-3.1-1c-1.2-0.1-2.4-0.1-3.9,0.1c-1.4,0.2-2.7,0.4-4,0.7L232,182l11.7-2.7l-3.7-15.6l14.3-3.4l3.7,15.6l5.4-1.3
		c1.2-0.3,2.2-0.6,3.1-0.9c0.9-0.3,1.6-0.6,2.1-1c1.1-0.7,1.7-1.7,1.8-3c0.1-1.3-0.1-3.1-0.7-5.4l-1.7-7.3L282.2,153.8z"/>
	<path class="st1" d="M251.2,112.7c3.5-0.6,6.9-0.2,10,1.2c3.2,1.4,5.9,4.2,8.1,8.3c3,5.4,3.7,10.3,2.2,14.7
		c-1.5,4.4-5,8.1-10.4,11.1l-21.7,12l-8.6-15.6l17.5-9.7c2.9-1.6,4.8-3.3,5.6-5.2c0.8-1.8,0.4-4.1-1.1-6.9c-1.4-2.5-3.1-3.9-5.3-4.3
		c-2.2-0.4-4.7,0.2-7.7,1.9l-17.1,9.5l-8.8-15.8l38-21l7.4,13.4L251.2,112.7z"/>
	<path class="st1" d="M207.3,57.4c2.9-0.9,5.9-1,9-0.2c3.1,0.8,6.3,2.8,9.7,5.9c1.5,1.4,2.9,2.9,4,4.6c1.1,1.6,2,3.3,2.7,5.1
		c1.4,3.6,1.7,7.2,1,11c-0.8,3.8-2.8,7.5-6.2,11.1c-1.7,1.8-3.4,3.3-5.2,4.5c-1.8,1.2-3.6,2.1-5.5,2.7c-3.8,1.2-7.6,1.2-11.4,0.1
		c-3.8-1.1-7.3-3.2-10.6-6.3c-2.8-2.7-4.8-5.4-5.9-8.2c-1.1-2.8-1.4-5.7-0.8-8.7l-14.1,15l-12.8-12l39.1-41.8l11.5,10.7L207.3,57.4z
		 M204.6,64.9c-2.3-0.2-4.5,0.8-6.4,2.9c-2.1,2.2-3,4.6-2.7,7.1c0.3,2.5,1.7,4.9,4.2,7.3c2.7,2.5,5.2,3.7,7.6,3.8
		c2.4,0,4.6-1.1,6.7-3.3c2-2.1,2.8-4.3,2.5-6.6c-0.3-2.3-1.8-4.6-4.4-7.1C209.4,66.4,206.9,65.1,204.6,64.9z"/>
	<path class="st1" d="M161.4,73.9c0.8,1.8,0.5,4-0.9,6.5c-1.4,2.5-3.2,3.8-5.4,3.9c-2.1,0.1-4.7-0.7-7.6-2.4
		c-2.9-1.7-4.9-3.5-5.9-5.4c-1-1.9-0.8-4.1,0.7-6.6c1.4-2.4,3.2-3.7,5.3-3.9c2.1-0.2,4.7,0.6,7.8,2.4
		C158.5,70.2,160.5,72,161.4,73.9z M164.9,70.3c-0.1-0.2-0.2-0.5-0.5-0.8s-0.6-0.7-1-1c-0.8-0.7-1.8-1.5-2.9-2.2
		c-1.1-0.8-2.1-1.4-2.9-1.9c-0.5-0.3-1-0.5-1.5-0.8c-0.5-0.3-1.1-0.5-1.6-0.8c-1.2-0.5-2.3-1-3.4-1.3c-1-0.3-1.8-0.5-2.2-0.4
		l21.7-37.4l16,9.3L164.9,70.3z"/>
	<path class="st1" d="M140.5,9.7c2.5,1.2,4.7,2.6,6.4,4.1c3.5,3,5.7,6.4,6.6,10.2c0.9,3.8,0.6,8-0.8,12.4c-0.7,2.2-1.6,4.3-2.8,6
		c-1.2,1.8-2.6,3.3-4.2,4.7c-3.3,2.7-7.3,4.3-12,4.9c-4.7,0.6-10,0-15.7-1.8c-2.9-0.9-5.5-1.9-7.9-3.2c-2.3-1.2-4.4-2.6-6.2-4.1
		c-3.6-3.1-6-6.7-7.1-10.7c-1.2-4-1.1-8.3,0.3-12.8c0.7-2.2,1.6-4.2,2.7-5.9c1.1-1.7,2.4-3.3,3.9-4.6c3.1-2.6,7-4.2,11.7-4.7
		c4.7-0.5,10.1,0.1,16.4,2C135,7.3,137.9,8.5,140.5,9.7z M118.9,19.5c-2.1,0.9-3.6,2.7-4.4,5.4c-0.9,3-0.8,5.5,0.5,7.5
		c1.3,2,3.6,3.6,7.1,4.6c3.4,1.1,6.3,1.1,8.5,0.1c2.2-1,3.8-3,4.7-6c0.8-2.8,0.6-5.1-0.7-7c-1.3-1.9-3.7-3.4-7.1-4.4
		C123.9,18.6,121,18.5,118.9,19.5z"/>
</g>
</svg>
