<svg xmlns="http://www.w3.org/2000/svg" viewBox="0 0 348.78 534.58"><path fill="none" stroke="#000" d="M151.91 3.69a49.07 49.07 0 018.79-2.6q7.89-1.5 13.79 1a28.2 28.2 0 0110.68 8.46l-19.92 10.9a8 8 0 00-7.49-2.45 30.71 30.71 0 00-10 3.65c-3.38 1.85-5.67 3.52-6.85 5s-1.41 2.93-.65 4.33a3.29 3.29 0 001.18 1.26 3.12 3.12 0 001.6.43 17.1 17.1 0 006-1.61q4.08-1.65 11.64-5.2 12.54-5.77 20.34-5.4t12.28 8.63a17.59 17.59 0 01.14 17.34q-4.54 8.88-18 16.22-13.65 7.44-23.74 7.35t-18.1-9.09l19-10.4a7 7 0 006.63 2.29 30.69 30.69 0 009.49-3.64c3.48-1.91 5.69-3.61 6.61-5.11a3.87 3.87 0 00.4-4.05 2.83 2.83 0 00-1.46-1.34 4.85 4.85 0 00-2.73 0 40.47 40.47 0 00-5.23 1.78q-3.33 1.35-8.64 3.86a89.66 89.66 0 01-8.41 3.58 65.21 65.21 0 01-7.23 2.21q-6.68 1.43-11.33-.44t-7.75-7.56a20.52 20.52 0 01-2.15-5.7 16.72 16.72 0 01-.18-5.82q.7-5.8 5.83-11.66t15.2-11.37a91 91 0 0110.26-4.85zM68.12 67.96l9.92-9.63a49.5 49.5 0 016.26-5.24 21 21 0 015.68-2.89 13.7 13.7 0 0110.53.75q5.16 2.49 11.23 8.89l5.65 6 8.22-8 10.9 11.48c-1.14 1.19-2.19 2.32-3.14 3.41a22.71 22.71 0 00-2.36 3.13 7.37 7.37 0 00-1.2 3.54 8.94 8.94 0 00.9 3.66 17.18 17.18 0 002.34 3.76c1 1.28 2 2.45 2.93 3.53l-11.26 10.93-9.42-9.93-13 12.64-11.62-12.24 13-12.65-4.34-4.59a33.21 33.21 0 00-2.62-2.53 12.77 12.77 0 00-2.16-1.53 4.25 4.25 0 00-4-.08 21 21 0 00-4.89 3.79l-6.06 5.93zM46.18 121.55a18.85 18.85 0 01-4.31-10.52q-.49-5.81 3.77-12.55 5.61-8.9 13.5-10.3t16.85 4.06l24 14.62-10.77 17.07-19.3-11.76q-4.85-2.94-8.23-2.58c-2.26.25-4.35 1.91-6.29 5q-2.58 4.08-1.39 7.59t6.11 6.5l18.86 11.49-11 17.35-41.88-25.56 9.28-14.7zM23.63 192.99q1.57 3.67 6.34 5 5 1.4 8.53-1.05t5.06-8.14c1.07-4 1-7.27-.27-9.72s-3.55-4.13-6.89-5.06c-3.18-.88-5.82-.55-7.94 1s-3.72 4.3-4.78 8.27-1.1 7.25-.05 9.7zm-8.89 1.22a17.85 17.85 0 01-5-9q-1.24-5.42.8-13a34.36 34.36 0 012.44-6.47 25 25 0 013.67-5.42 21.83 21.83 0 0110.57-6.84q6.33-1.89 14.46.37a33.65 33.65 0 017.25 2.9 26.42 26.42 0 015.68 4.16 22.92 22.92 0 016.19 11.48 30 30 0 01-.61 14.14 26.73 26.73 0 01-5 10.37 16.74 16.74 0 01-8.28 5.38l22.59 6.27-5.19 19.35-62.87-17.47 4.7-17.34zM55.24 231.41q2.1-2.62 7-2.34t6.66 3.44c1.2 2.11 1.71 5.07 1.52 8.9s-1 6.73-2.42 8.71-3.74 2.87-7 2.68-5.32-1.3-6.58-3.35-1.8-5.08-1.59-9.07q.31-6.34 2.41-8.97zm-5.32-1.79a2.83 2.83 0 00-.54.85 8.2 8.2 0 00-.5 1.54c-.29 1.23-.54 2.58-.75 4.07s-.35 2.78-.41 3.91c0 .62-.05 1.25-.06 1.9s0 1.34 0 2.08c.1 1.47.24 2.82.43 4.05a6.12 6.12 0 00.75 2.46L.53 247.63l1.06-20.87zM21.34 302.73a9.13 9.13 0 007.68 1.8c3.53-.55 6-2 7.46-4.26s1.85-5.48 1.21-9.56-2-6.93-4.07-8.69-4.88-2.38-8.41-1.82c-3.25.51-5.52 1.89-6.83 4.16s-1.64 5.42-1 9.45q.98 6.38 3.96 8.92zM.67 285.5a33.37 33.37 0 011.06-8.59 21.48 21.48 0 017.19-11.82A27.13 27.13 0 0122 259.68a26.69 26.69 0 017.55-.15 24 24 0 016.89 1.98 26.07 26.07 0 0110.91 9.85 43 43 0 016 16.9 52.58 52.58 0 01.69 9.61 37.63 37.63 0 01-1.13 8.43 25.66 25.66 0 01-7.47 12.59 24.9 24.9 0 01-13.24 6 27.44 27.44 0 01-7.37.21 24.14 24.14 0 01-6.63-1.71 24.45 24.45 0 01-10.61-9.56q-4.31-6.74-6.03-17.74a68.21 68.21 0 01-.89-10.59zM57.24 395.59c2.45.93 5.08.55 7.89-1.11s4.66-4 5.13-6.81-.29-5.85-2.27-9.17q-3.15-5.28-7-6.44t-8.31 1.47q-4.22 2.49-4.77 6.35t2.55 9q3.1 5.32 6.78 6.71zm-5.25 7.18a17.45 17.45 0 01-9.77-2.62q-4.66-2.81-8.63-9.45a33 33 0 01-2.89-6.16 25 25 0 01-1.26-6.31 21.83 21.83 0 012.45-12.22q3-5.81 10.22-10.07a33.84 33.84 0 017-3.2 26.65 26.65 0 016.84-1.22 22.39 22.39 0 0112.36 3.42 29.28 29.28 0 019.55 10.08 26.07 26.07 0 013.85 10.67 16.64 16.64 0 01-1.9 9.59l20-11.85 10.08 16.91-55.54 33-9-15.17zM102.57 402.64a2.76 2.76 0 00.23 1 8.49 8.49 0 00.76 1.44c.67 1.07 1.47 2.2 2.38 3.4s1.74 2.21 2.51 3c.42.46.86.91 1.32 1.37s1 .94 1.49 1.44c1.11 1 2.17 1.81 3.18 2.53a5.8 5.8 0 002.27 1.17l-35.27 33.25-14.16-15.39zm4.94-2.61q-.43-3.37 3.11-6.71t7-2.44q3.5.9 7.39 5.13t4.55 7.87q.65 3.61-2.89 6.95t-6.92 2.44q-3.5-.76-7.56-5.19-4.25-4.68-4.68-8.05zM112.86 488.8q2.27 1.62 4 2.71a35.57 35.57 0 003.14 1.77 10.11 10.11 0 004.16 1.15 2.62 2.62 0 002.09-1l.15-.21a2.69 2.69 0 00.42-.89 2.81 2.81 0 00.1-1 4.67 4.67 0 00-1.48-2.35 33.81 33.81 0 00-4.69-3.81l-8.8-6.27c-3-2.11-5.26-3.38-6.84-3.78a3.05 3.05 0 00-3.55 1.06v.06q-1.23 1.73.92 4.24a49.79 49.79 0 008.27 6.86zm28.05-26.84c2 .57 3.42.22 4.33-1.06a3.75 3.75 0 00-.06-4.5q-1.53-2.43-7.1-6.4l-1.1-.78c-3.42-2.37-6-3.75-7.83-4.13a3.81 3.81 0 00-4.22 1.56 3.35 3.35 0 00.28 4.34q1.74 2.28 7.17 6.14 5.58 3.96 8.53 4.83zm-13.47 46.78q-9.09-.84-23.53-11.11l-3.67-2.54q-4.55-3.22-7.94-6a69.39 69.39 0 01-5.68-5.13q-4.47-4.63-5.25-8a7.29 7.29 0 011.17-6.16 7.58 7.58 0 016.9-3.29q4.53.16 12.37 5-6.75-5.22-8.62-9.35a7.69 7.69 0 011-8.11 8.87 8.87 0 017.15-3.87q4.56-.23 11.88 4.05-5.23-5.18-6.3-9.71t2.45-9.49q4.56-6.39 13.08-5.87t21.11 9.49l2.2 1.57c1 .68 1.83 1.25 2.62 1.7a10.92 10.92 0 002.19 1 4.42 4.42 0 003.66-.2 11.81 11.81 0 003.61-3.63l1.57-2.2 17.32 12.33-.74 1a16.75 16.75 0 01-4.5 4.66 5.7 5.7 0 01-4.71.58 20.5 20.5 0 01-6.29-3q-3.7-2.43-9.34-6.45l-5.08-3.92q3.06 2.39 5.59 4.44a46.43 46.43 0 014.06 3.67q6.16 5.75 7.37 10.9t-2.56 10.44q-4.76 6.67-12.66 5.86t-21-10.12l-6.39-4.55c-1.33-.94-2.5-1.74-3.52-2.4s-1.89-1.2-2.61-1.65a7.83 7.83 0 00-3.11-1.23 1.7 1.7 0 00-1.51.74c-.46.64-.15 1.5.92 2.57a65.33 65.33 0 007 5.47l12.58 8.95q11 7.83 13.67 14t-2 12.68l-.15.2a15 15 0 01-14.31 6.68zM176.27 459.54a2.66 2.66 0 00.62.83 8.14 8.14 0 001.27 1q1.59 1.06 3.57 2.19c1.32.74 2.51 1.34 3.55 1.8.57.26 1.16.5 1.78.74s1.26.49 2 .74c1.43.44 2.75.79 4 1a6 6 0 002.58.17l-19.84 45.3-19.36-8.47zm3.59-4.45c-1.16-2-1.07-4.48.25-7.51s3.2-4.75 5.62-5.14 5.39.19 8.93 1.76 6 3.39 7.37 5.46 1.38 4.62 0 7.65-3.11 4.63-5.5 5.1-5.43-.11-9.13-1.75q-5.81-2.57-7.54-5.57zM233.64 527.98l-13.51-3.16a51.06 51.06 0 01-7.81-2.43 21.47 21.47 0 01-5.5-3.18 13.3 13.3 0 01-5-9.11q-.65-5.58 1.53-14l2-7.8-11.2-2.62 3.92-15q2.43.48 4.59.81a23.46 23.46 0 003.92.31 7.47 7.47 0 003.65-.87 8.75 8.75 0 002.63-2.66 16.5 16.5 0 001.94-3.9c.54-1.51 1-2.94 1.43-4.28l15.33 3.59-3.39 13 17.74 4.15-4.17 16-17.74-4.15-1.57 6a32.32 32.32 0 00-.73 3.49 11.17 11.17 0 00-.15 2.6 4.15 4.15 0 002.07 3.33 21.33 21.33 0 005.85 2.05l8.29 1.94zM281.97 520.78a17 17 0 003.93-1.3 15.62 15.62 0 005.93-4.19 8.16 8.16 0 002.16-5.5v-.51a8.29 8.29 0 01-3.55 1.81 44.41 44.41 0 01-6.49 1.33c-3.11.33-5.47.67-7.09 1a12.13 12.13 0 00-3.59 1.21 4.81 4.81 0 00-1.55 1.39 2.93 2.93 0 00-.52 1.8v.09a2.83 2.83 0 001.53 2.5 9.93 9.93 0 004.91.82 24.18 24.18 0 004.33-.45zm12.66 1.31a20.81 20.81 0 01-8.88 8.51q-6.15 3.33-15.85 3.48-9.87.13-14.91-3.26t-5.15-10.31v-.09a14.42 14.42 0 011.78-7.59 13.05 13.05 0 015.82-5.17 25.81 25.81 0 012.45-1.11c.85-.32 1.72-.6 2.63-.85a52.17 52.17 0 016.74-1.42c2.68-.4 6.1-.78 10.23-1.13 2-.19 3.71-.37 5.18-.54s2.72-.34 3.74-.52a11.46 11.46 0 004.24-1.22 2.22 2.22 0 001.07-1.94 3.65 3.65 0 00-2-3q-2-1.26-7.51-1.18c-4.48.07-7.62.62-9.42 1.68a5.36 5.36 0 00-2.9 4.4l-20.93.3q.93-9.94 9.23-14.8t22.85-5.07q15.23-.21 22.76 4.51t7.73 16.69l.51 29.32-17.36.25zM328.4 527.89l-14.29-63.07 19.78-4.46 14.29 63.06-19.78 4.47z"/></svg>
