<?xml version="1.0" encoding="UTF-8"?>
<svg preserveAspectRatio="xMidYMid slice" width="260px" height="100px" xmlns="http://www.w3.org/2000/svg" id="Layer_1" data-name="Layer 1" viewBox="0 0 260 100">
  <defs>
    <style>.cls-1{fill:#fff;}</style>
  </defs>
  <path class="cls-1" d="M66.78,33.06H90.87v7H75.55v6.07H89.69v7.11H75.55v6.66H90.87v7H66.78ZM120.89,56c0,2.69-1.48,4.18-5.8,4.18s-5.73-1.52-5.73-4.18V33.06h-8.73V56.94c0,5.34,3.28,10.69,14.5,10.69s14.56-5.35,14.56-10.69V33.06H121V56Zm59.42,11H189V33.06h-8.73Zm38.62-16.77v9.52a29.66,29.66,0,0,1-5.21.45c-4.49,0-5.35-1.55-5.35-4.45V44c0-3.14,1.52-4.18,5.21-4.18a84.11,84.11,0,0,1,11.66,1l.8-7.31a61.35,61.35,0,0,0-12.29-1.18c-10,0-14.15,3.38-14.15,10.56V57c0,6.79,3.8,10.55,13.91,10.55A50.76,50.76,0,0,0,227,65.8V50.14h-8ZM31.79,44.69A5.35,5.35,0,1,0,37.1,50a5.33,5.33,0,0,0-5.31-5.34m0-12.29a5.35,5.35,0,1,0,5.31,5.35,5.33,5.33,0,0,0-5.31-5.35m0,24.57a5.35,5.35,0,1,0,5.31,5.35A5.33,5.33,0,0,0,31.79,57M58.5,33.06H48.66l-10,17,10,17h9.8L48.18,50ZM164.37,55.62,171.24,67h-9.8L156,57.38h-6.69V67h-8.73V33.06h16.05c9.14,0,12.07,3.59,12.07,9.8v4.76c0,3.83-1.07,6.07-4.31,8Zm-4.18-12.38c0-2.21-1-3.14-3.65-3.14h-7.25V50.48h7c2.79,0,3.86-1,3.86-3.31Zm71.09-10.67A2.25,2.25,0,0,0,229,34.85a2.24,2.24,0,1,0,4.48,0,2.22,2.22,0,0,0-2.24-2.28m0,4.25a2,2,0,1,1,2-2,2,2,0,0,1-2,2m.14-1.69h-.52v.72h-.31V33.71h.83c.45,0,.66.21.66.55v.31a.45.45,0,0,1-.32.49l.59.76H232Zm0-1.14h-.52v.86h.52c.24,0,.34-.1.34-.28v-.31c0-.2-.1-.27-.34-.27"></path>
</svg>
