<?xml version="1.0" encoding="UTF-8"?>
<svg preserveAspectRatio="xMidYMid slice" width="260px" height="100px" xmlns="http://www.w3.org/2000/svg" id="Layer_1" data-name="Layer 1" viewBox="0 0 260 100">
  <defs>
    <style>.cls-1{fill:#fff;}</style>
  </defs>
  <g id="Symbols">
    <g id="menu">
      <g id="Group-27">
        <g id="logo">
          <g id="Group-16">
            <path id="Fill-1" class="cls-1" d="M113,58.17a13.34,13.34,0,0,1-.54,3.9,6.78,6.78,0,0,1-1.41,2.5,7.18,7.18,0,0,1,1.63,2.71,13.14,13.14,0,0,1,.65,4.55v9.44h-4.45V71.83a7.21,7.21,0,0,0-.32-2.49,3.72,3.72,0,0,0-.65-1.3,1.1,1.1,0,0,0-.76-.54,1.16,1.16,0,0,0-.54-.11h-1.3c-.22,0-.33.11-.33.21V81.38h-4.45V49.06h5.64a5.83,5.83,0,0,1,3.36,1,11.33,11.33,0,0,1,1.31,1.08,6.42,6.42,0,0,1,1.08,1.63,11.07,11.07,0,0,1,.76,2.28,13.14,13.14,0,0,1,.32,3.14m-4.44,0a6.07,6.07,0,0,0-.44-2.71,2.48,2.48,0,0,0-.86-1.3c-.44-.33-.76-.54-1.2-.43h-.75c-.22,0-.33.1-.33.21v8.24c0,.11.11.22.33.22H106a2.48,2.48,0,0,0,1.2-.54,3.8,3.8,0,0,0,.86-1.19,5.68,5.68,0,0,0,.44-2.5"></path>
            <path id="Fill-3" class="cls-1" d="M121.75,62.94a.34.34,0,0,0,.11.22c0,.11.1.22.32.22h5.21v4.55h-5.21c-.22,0-.32.11-.32.22V81.27h-4.67V49.06H128v4.56h-6c-.21,0-.32.11-.32.21v9.11Z"></path>
            <path id="Fill-5" class="cls-1" d="M138.12,48.63a10.17,10.17,0,0,1,1.52.11,10.93,10.93,0,0,1,2.38.65,5.73,5.73,0,0,1,2.17,1.84,5.85,5.85,0,0,1,1,3.58V75.52a5.85,5.85,0,0,1-1,3.58A6.69,6.69,0,0,1,142,80.94a5.15,5.15,0,0,1-2.38.65,10.56,10.56,0,0,1-3,0,10.93,10.93,0,0,1-2.38-.65,5.73,5.73,0,0,1-2.17-1.84,5.85,5.85,0,0,1-1-3.58V54.81a5.85,5.85,0,0,1,1-3.58,6.69,6.69,0,0,1,2.17-1.84,5.15,5.15,0,0,1,2.38-.65A10.17,10.17,0,0,1,138.12,48.63Zm2.6,6.18c-.11-.43-.11-.87-.32-1.08a1.69,1.69,0,0,0-.76-.76,4.25,4.25,0,0,0-1.52-.44,2.11,2.11,0,0,0-1.52.44,1.69,1.69,0,0,0-.76.76c-.1.32-.21.65-.32,1.08V75.52a7.84,7.84,0,0,0,.32,1.08,1.69,1.69,0,0,0,.76.76,3.67,3.67,0,0,0,3,0,5,5,0,0,0,.76-.76c.11-.32.21-.65.32-1.08Z"></path>
            <path id="Fill-7" class="cls-1" d="M161.54,58.17a13.34,13.34,0,0,1-.54,3.9,6.92,6.92,0,0,1-1.41,2.5,7.31,7.31,0,0,1,1.63,2.71,13.14,13.14,0,0,1,.65,4.55v9.44h-4.45V71.83a7.46,7.46,0,0,0-.32-2.49,3.72,3.72,0,0,0-.65-1.3,1.12,1.12,0,0,0-.76-.54,1.2,1.2,0,0,0-.55-.11h-1.3c-.21,0-.32.11-.32.21V81.38h-4.45V49.06h5.64a5.83,5.83,0,0,1,3.36,1,10.47,10.47,0,0,1,1.3,1.08,6.18,6.18,0,0,1,1.09,1.63,11.7,11.7,0,0,1,.76,2.28,13.67,13.67,0,0,1,.32,3.14m-4.44,0a8.64,8.64,0,0,0-.33-2.71,2.48,2.48,0,0,0-.87-1.3c-.43-.33-.76-.54-1.19-.43H154c-.21,0-.32.1-.32.21v8.24c0,.11.11.22.32.22h.76a2.45,2.45,0,0,0,1.19-.54,3.66,3.66,0,0,0,.87-1.19,8.14,8.14,0,0,0,.33-2.5"></path>
            <path id="Fill-9" class="cls-1" d="M171.73,49.06a12.51,12.51,0,0,1,3.58.54,8.29,8.29,0,0,1,1.3.76,5,5,0,0,1,2.06,2.71,6.51,6.51,0,0,1,.33,2.17V75a6.43,6.43,0,0,1-.33,2.17,3.82,3.82,0,0,1-.86,1.62,5.67,5.67,0,0,1-1.2,1.09,8.29,8.29,0,0,1-1.3.76,9.59,9.59,0,0,1-3.58.65h-6V49.06Zm2.72,6.18a3.5,3.5,0,0,0-.33-.86,1.94,1.94,0,0,0-.76-.55,3.08,3.08,0,0,0-1.52-.21h-1.08c-.22,0-.33.11-.33.21V76.5c0,.1.11.21.33.21h1.08a3.08,3.08,0,0,0,1.52-.21c.33-.22.65-.33.76-.55a1,1,0,0,0,.33-.86Z"></path>
            <path id="Fill-11" class="cls-1" d="M89.65,48.63a10.17,10.17,0,0,1,1.52.11,10.93,10.93,0,0,1,2.38.65,5.73,5.73,0,0,1,2.17,1.84,5.85,5.85,0,0,1,1,3.58V75.52a5.85,5.85,0,0,1-1,3.58,6.69,6.69,0,0,1-2.17,1.84,5.15,5.15,0,0,1-2.38.65,10.56,10.56,0,0,1-3,0,9.6,9.6,0,0,1-2.38-.65,5.73,5.73,0,0,1-2.17-1.84,5.24,5.24,0,0,1-1.09-3.58V54.81a5.85,5.85,0,0,1,1-3.58,6.69,6.69,0,0,1,2.17-1.84A5.21,5.21,0,0,1,88,48.74,11.45,11.45,0,0,1,89.65,48.63Zm2.5,6.18a6.5,6.5,0,0,0-.33-1.08,1.64,1.64,0,0,0-.76-.76,4.19,4.19,0,0,0-1.52-.44A2.11,2.11,0,0,0,88,53a1.62,1.62,0,0,0-.75.76c-.11.32-.22.65-.33,1.08V75.52c.11.43.11.87.33,1.08a1.62,1.62,0,0,0,.75.76,3.67,3.67,0,0,0,3,0,4.54,4.54,0,0,0,.76-.76c.11-.32.22-.65.33-1.08Z"></path>
          </g>
          <polygon id="Fill-19" class="cls-1" points="102.23 35.83 107.33 35.83 107.33 32.91 102.23 32.91 102.23 35.83"></polygon>
          <polygon id="Fill-21" class="cls-1" points="118.28 20.76 117.95 20.76 115.03 31.17 112.86 24.23 110.14 24.23 110.14 42.23 112.86 42.23 112.86 31.5 114.37 36.48 115.78 36.48 117.52 30.74 117.52 42.23 120.34 42.23 120.34 20.76 118.28 20.76"></polygon>
          <g id="Group-15">
            <path id="Fill-13" class="cls-1" d="M126.74,17.29c-2.49,0-4.22,2.17-4.22,5.1v15.4c0,2.49,1.3,4.44,3.14,5a3.3,3.3,0,0,0,1.08.11,3.68,3.68,0,0,0,1.09-.11c2-.54,3.14-2.38,3.14-5V22.39C130.86,19.46,129.24,17.29,126.74,17.29Zm1.41,20.17c0,1.41-.54,2.28-1.41,2.28s-1.41-.87-1.41-2.28V22.71c0-1.41.55-2.27,1.41-2.27s1.41.86,1.41,2.27Z"></path>
          </g>
          <polygon id="Fill-20" class="cls-1" points="133.24 17.29 133.24 42.77 136.06 42.77 135.95 26.4 140.72 42.77 143.43 42.77 143.43 20.98 140.72 20.98 140.72 33.66 136.06 17.29 133.24 17.29"></polygon>
          <polygon id="Fill-17" class="cls-1" points="145.06 24.23 145.06 26.83 147.99 26.83 147.99 42.23 150.7 42.23 150.7 26.83 153.52 26.83 153.52 24.23 145.06 24.23"></polygon>
          <polygon id="Fill-18" class="cls-1" points="154.17 35.83 159.26 35.83 159.26 32.91 154.17 32.91 154.17 35.83"></polygon>
        </g>
      </g>
    </g>
  </g>
</svg>
