<?xml version="1.0" encoding="UTF-8"?>
<svg preserveAspectRatio="xMidYMid slice" width="260px" height="100px" xmlns="http://www.w3.org/2000/svg" id="Layer_1" data-name="Layer 1" viewBox="0 0 260 100">
  <defs>
    <style>.cls-1{fill:#fff;}</style>
  </defs>
  <path class="cls-1" d="M172.13,31.72v-.06c0-6.05,5.71-10.94,13.51-10.94s13.45,4.89,13.45,10.88v.06c0,6.06-5.7,11-13.51,11s-13.45-4.83-13.45-10.89m21.08.06v-.06c0-3.61-3.2-6.64-7.68-6.64s-7.63,3-7.63,6.58v.06c0,3.61,3.2,6.7,7.68,6.7s7.63-3,7.63-6.64m9.38-10.72h11.58c3.21,0,5.71.76,7.4,2.16a6.08,6.08,0,0,1,2.15,4.83v.06c0,3.44-2.21,5.59-5.41,6.58l6.17,7.57H218l-5.42-6.81h-4.36v6.81h-5.59Zm11.18,10.31c2.73,0,4.25-1.22,4.25-3v-.06c0-2-1.69-3-4.37-3h-5.53v6.11l5.65-.06M42.06,40.86a15.72,15.72,0,0,1-7.52,1.81c-7.86,0-13.45-4.89-13.45-11v-.06c0-6.05,5.71-10.94,13.51-10.94S48.05,25.61,48.05,31.6v.06a9.7,9.7,0,0,1-2.27,6.12l2.62,1.86L44.85,43l-2.79-2.1Zm-4.14-3.08-4.13-2.92,3.55-3.31,4.19,3.14a6.08,6.08,0,0,0,.7-2.91v-.06c0-3.61-3.2-6.64-7.69-6.64S26.92,28,26.92,31.6v.06c0,3.61,3.2,6.64,7.68,6.64a8.58,8.58,0,0,0,3.32-.52m13.22-4.6V21.06h5.59v12c0,3.43,2,5.24,5.47,5.24s5.48-1.75,5.48-5.07V21.06h5.58V33c0,6.41-4.3,9.55-11.12,9.55s-11-3.09-11-9.37M101,21.06h11.76c2.91,0,5.18.65,6.64,1.87a4.53,4.53,0,0,1,1.75,3.61v.06c0,2.38-1.52,3.72-3.32,4.54,2.91.93,4.71,2.39,4.71,5.24v.06c0,3.9-3.78,5.82-9.49,5.82H101Zm10.54,8.62c2.45,0,4-.64,4-2.27v-.06c0-1.39-1.28-2.15-3.67-2.15H106.4v4.48Zm1.51,8.5c2.45,0,4-.7,4-2.33V35.8c0-1.46-1.28-2.33-4.13-2.33H106.4v4.66l6.63,0M125.9,21.06H145V25.2H131.43v4.31h11.94v4.13H131.43v4.43h13.74V42.2H125.9V21.06m21.66,10.66v-.06c0-6.05,5.42-10.94,13.22-10.94,4.77,0,7.63,1.33,10,3.26l-3.55,3.43A10.56,10.56,0,0,0,160.78,25c-4.25,0-7.34,3-7.34,6.58v.06c0,3.61,3,6.7,7.34,6.7a9.91,9.91,0,0,0,6.64-2.51l3.55,3a14.13,14.13,0,0,1-10.37,3.79c-7.51,0-13-4.84-13-11M77.46,21.06h19.1V25.2H83v4.31H94.93v4.13H83v4.43H96.73V42.2H77.46V21.06m10-6.34-3.66,4.83h4.36L92,16.46l-4.6-1.74"></path>
  <path class="cls-1" d="M101.62,90.7S148.14,18.1,254,44.24c0,0-93.1-16.6-152.38,46.46"></path>
</svg>
