<?xml version="1.0" encoding="UTF-8"?>
<svg preserveAspectRatio="xMidYMid slice" width="260px" height="100px" xmlns="http://www.w3.org/2000/svg" id="Layer_1" data-name="Layer 1" viewBox="0 0 260 100">
  <defs>
    <style>.cls-1{fill:#fff;}</style>
  </defs>
  <path class="cls-1" d="M114.26,60.1V39.37h11.31V44h-6.24v3.53h6V52.2h-6v7.9Z"></path>
  <path class="cls-1" d="M139.36,60.1V58.42h-.06c-.67,1.37-2.52,2.21-4.57,2.21-4.59,0-7.78-3.61-7.78-8.32S130.28,44,134.73,44a5.29,5.29,0,0,1,4.57,2.18h.06V44.55H144V60.1Zm0-7.79a4,4,0,0,0-4-4,4,4,0,1,0,4,4Z"></path>
  <path class="cls-1" d="M147.54,60.1V39.37h4.65v6.41A5.8,5.8,0,0,1,156.61,44c4,0,7.74,3,7.74,8.21,0,4.79-3.06,8.4-7.85,8.4a5.12,5.12,0,0,1-4.45-2.18H152V60.1Zm12.15-7.79a3.84,3.84,0,1,0-7.67,0,3.8,3.8,0,0,0,3.78,4A3.88,3.88,0,0,0,159.69,52.31Z"></path>
  <path class="cls-1" d="M166.92,60.1V44.55h4.37V46.2h.06A3.81,3.81,0,0,1,175.24,44V48.7c-2.77,0-3.67,1.06-3.67,2.83V60.1Z"></path>
  <path class="cls-1" d="M177.71,42.9V39.37h4.65V42.9Zm0,17.2V44.55h4.65V60.1Z"></path>
  <path class="cls-1" d="M195.13,60.1l-4.4-7.48h0V60.1H186V39.37h4.65V50.18h0l4.32-5.63h5.52l-5.86,6.84,5.69,8.71Z"></path>
  <path class="cls-1" d="M43.65,23.3V76.7h172.7V23.3ZM95.06,43A25.06,25.06,0,0,0,79.94,26.6H95.06Zm-2.3,7A21.76,21.76,0,1,1,71,28.25,21.78,21.78,0,0,1,92.76,50ZM62.07,26.6A25.06,25.06,0,0,0,47,43V26.6ZM47,57A25.06,25.06,0,0,0,62.07,73.4H47Zm33,16.44A25.06,25.06,0,0,0,95.06,57V73.4Zm133.11,0H98.36V26.6H213.05Z"></path>
  <path class="cls-1" d="M69.58,49.06h8V52.7h-8v8.23H65.2V40.42H79.51v3.63H69.58Z"></path>
</svg>
