<?xml version="1.0" encoding="UTF-8"?>
<svg preserveAspectRatio="xMidYMid slice" width="260px" height="100px" xmlns="http://www.w3.org/2000/svg" id="Layer_1" data-name="Layer 1" viewBox="0 0 260 100">
  <defs>
    <style>.cls-1{fill:#fff;}</style>
  </defs>
  <polyline id="polyline3" class="cls-1" points="138.71 65.49 164.28 65.49 164.28 62.38 143.09 62.38 143.09 52.38 159.01 52.38 159.01 49.23 143.09 49.23 143.09 40.03 164.28 40.03 164.28 36.93 138.71 36.93 138.71 65.49"></polyline>
  <polyline id="polyline5" class="cls-1" points="152 32.3 148.54 36.19 159.4 32.3 152 32.3"></polyline>
  <polyline id="polyline7" class="cls-1" points="207.17 62.38 207.17 36.93 203.16 36.93 203.16 65.49 229 65.49 229 62.38 207.17 62.38"></polyline>
  <path id="path9" class="cls-1" d="M180.84,36.93,166.31,65.49h4.9l3.71-7.4h17.43l3.73,7.4h4.85l-14.5-28.56h-5.59m-4.09,17.6,6.86-13.64,6.93,13.64Z"></path>
  <path id="path11" class="cls-1" d="M124.85,53.54c6.56-1.76,7.18-6.61,7.15-8.37-.39-5.09-3.83-8.26-10-8.26H104V65.49h4.11v-12h11.73l8.64,12h5.17s-6.24-8.07-8.79-11.95m-3.41-3.42H108.1V40.3h13.81c3.16,0,5,1.48,5.62,3.36A5.4,5.4,0,0,1,127,47.8C125.79,49.73,123.61,50.12,121.44,50.12Z"></path>
  <path id="path13" class="cls-1" d="M79.31,32.08c-11.58,0-19.48,8.17-19.48,18.07,0,10.42,8.74,17.77,19.48,17.77s19.48-7.25,19.48-17.77c0-9.9-8-18.07-19.48-18.07m-.15,32.27a14.36,14.36,0,1,1,14.93-14.2C94.11,57.92,87.18,64.35,79.16,64.35Z"></path>
  <polyline id="polyline15" class="cls-1" points="49.49 47.03 52.43 47.03 57.83 36.93 53.5 36.93 49.49 47.03"></polyline>
  <polyline id="polyline17" class="cls-1" points="34.98 62.38 34.98 36.93 31 36.93 31 65.49 56.84 65.49 56.84 62.38 34.98 62.38"></polyline>
</svg>
