<?xml version="1.0" encoding="UTF-8"?>
<svg preserveAspectRatio="xMidYMid slice" width="260px" height="100px" xmlns="http://www.w3.org/2000/svg" id="Layer_1" data-name="Layer 1" viewBox="0 0 260 100">
  <defs>
    <style>.cls-1{fill:#fff;}</style>
  </defs>
  <g id="Logo">
    <g id="Group_3" data-name="Group 3">
      <g id="Group_3-2" data-name="Group 3-2">
        <path id="Fill_1" data-name="Fill 1" class="cls-1" d="M57.1,30.28,54.64,29c-2.47-1.16-3.46-2.47-3.46-4.12,0-2.79,2.63-3.78,4.94-3.78a7.58,7.58,0,0,1,4.93,1.81c.17,0,.33.16.5.16a.16.16,0,0,0,.16-.16l.17-.17c.16-.33.65-1,.82-1.31.16-.17,0-.5-.17-.66A12,12,0,0,0,56,18.6c-4.27,0-7.4,2.63-7.4,6.25,0,2.64,1.48,4.61,4.94,6.42l2.13,1.15c3.13,1.65,4.61,2.8,4.61,5.27A4.61,4.61,0,0,1,55.3,42h-.17a8.86,8.86,0,0,1-5.76-2.3c-.16,0-.33-.16-.49-.16s-.17,0-.33.16l-.17.17c-.16.32-.49.65-.65,1a1.29,1.29,0,0,0,.16.83h0a10.64,10.64,0,0,0,7.24,2.63c5.1,0,7.9-3.46,7.9-6.75-.17-3.12-1.81-5.1-5.93-7.24"></path>
      </g>
    </g>
    <path id="Fill_4" data-name="Fill 4" class="cls-1" d="M92.48,19.69,88.2,37a.89.89,0,0,1-1,.65c-.33,0-.5-.33-.66-.49L82,19.69c0-.33-.33-.49-.66-.49H79c-.33,0-.5.16-.66.49L73.89,37a.7.7,0,0,1-1,.49c-.33,0-.49-.33-.49-.66L68,19.69a.51.51,0,0,0-.49-.49H65.66a.7.7,0,0,0-.66.65V20l5.76,23c.17.5.5.66,1,.83h2a1,1,0,0,0,1-.83l4.44-16.94a.7.7,0,0,1,1-.5.52.52,0,0,1,.49.5l4.94,16.78a1,1,0,0,0,1,.82h2a1.06,1.06,0,0,0,1-.82l5.76-23c0-.33-.17-.65-.5-.65H93a.52.52,0,0,0-.49.49"></path>
    <path id="Fill_6" data-name="Fill 6" class="cls-1" d="M113.71,43.71h-2.47c-.5,0-.66-.66-.66-.66L108.28,36c-.17-.33-.33-.5-.66-.5h-7.08c-.33,0-.49.17-.66.5l-2.3,6.91a.9.9,0,0,1-1,.66H94.45c-.16,0-.32,0-.32-.17-.17-.33,0-.66,0-.82L102,19.85a.91.91,0,0,1,1-.65h2.3a1.09,1.09,0,0,1,1,.65l7.9,22.87s.16.66,0,.83A.62.62,0,0,1,113.71,43.71ZM104,24.79c-.33,0-.5.16-.66.49L101.2,31.7c-.16.33,0,.66.49.82h4.45c.16,0,.33-.16.49-.33s.16-.32.16-.65l-2.13-6.42C104.66,25,104.33,24.79,104,24.79Z"></path>
    <path id="Fill_8" data-name="Fill 8" class="cls-1" d="M125.39,43.71h-6.75a1,1,0,0,1-1-1V20.18a1,1,0,0,1,1-1h6.09c5.1,0,7.57,3.29,7.57,6.41a5.85,5.85,0,0,1-1.65,4.12,1,1,0,0,0,0,1.48l.17.16a6.57,6.57,0,0,1,3,5.43C133.45,40.91,130.32,43.71,125.39,43.71Zm-2.8-11a.71.71,0,0,0-.66.66v6.08a.71.71,0,0,0,.66.66h1.81c3,0,4.77-1.31,4.77-3.62a4.11,4.11,0,0,0-4.11-3.78h-2.47Zm0-9.71a.71.71,0,0,0-.66.66v4.77a.71.71,0,0,0,.66.66h1.81c1.65,0,3.46-.82,3.46-3A3.24,3.24,0,0,0,124.73,23h-2.14Z"></path>
    <path id="Fill_10" data-name="Fill 10" class="cls-1" d="M142.66,20.18V23a1,1,0,0,0,1,1h5.1a1,1,0,0,1,1,1V42.4a1,1,0,0,0,1,1H154a.94.94,0,0,0,1-1V25.12a1.07,1.07,0,0,1,1-1h5.27a1.06,1.06,0,0,0,1-1v-3a.94.94,0,0,0-1-1H143.65a1.06,1.06,0,0,0-1,1"></path>
    <path id="Fill_12" data-name="Fill 12" class="cls-1" d="M179.68,20.18v7.08a1,1,0,0,1-1,1h-5.6a1,1,0,0,1-1-1V20.18a1,1,0,0,0-1-1h-4.44a1,1,0,0,0-1,1h0V42.56a1,1,0,0,0,1,1h4.44a1,1,0,0,0,1-1h0V35a1,1,0,0,1,1-1h5.6a1,1,0,0,1,1,1h0v7.57a1.07,1.07,0,0,0,1,1h4.44a1.06,1.06,0,0,0,1-1V20.18a.94.94,0,0,0-1-1h-4.44a1.06,1.06,0,0,0-1,1"></path>
    <path id="Fill_14" data-name="Fill 14" class="cls-1" d="M209.47,24.79V20.18a1,1,0,0,0-1-1H190.71a1,1,0,0,0-1,1V42.56a1,1,0,0,0,1,1h17.6a1,1,0,0,0,1-1V38a.94.94,0,0,0-1-1H197.78a.7.7,0,0,1-.65-.66v-1a.7.7,0,0,1,.65-.66h4.61a1,1,0,0,0,1-1h0V28.74a1,1,0,0,0-1-1h-4.61a.7.7,0,0,1-.65-.66v-.65a.7.7,0,0,1,.65-.66h10.53c.66,0,1.16-.33,1.16-1"></path>
    <path id="Fill_16" data-name="Fill 16" class="cls-1" d="M84.91,49.14,78.82,74.32a.8.8,0,0,1-1,.49.53.53,0,0,1-.5-.49L70.6,49.14c-.17-.33-.33-.49-.66-.49H67.47c-.33,0-.66.16-.66.49L59.9,74.48a.79.79,0,0,1-1,.49.53.53,0,0,1-.49-.49L52.17,49a.91.91,0,0,0-.82-.5H49.54c-.17,0-.5.17-.5.33V49l7.74,31.26c.16.33.32.66.65.66h3c.32,0,.65-.17.65-.5l6.59-24.68a.78.78,0,0,1,1-.49.53.53,0,0,1,.5.49L75.7,80.4c.16.33.33.5.66.5h3a.84.84,0,0,0,.82-.66l7.73-31.1s.33-.82-.65-.82H85.57a3.72,3.72,0,0,0-.66.82"></path>
    <path id="Fill_18" data-name="Fill 18" class="cls-1" d="M105.81,81.39a8.92,8.92,0,0,1-2.14-.16,15.93,15.93,0,0,1-9.38-4.94,16.11,16.11,0,0,1-4.77-9.38A16.28,16.28,0,0,1,106,48.15a9.1,9.1,0,0,1,2.14.17,16.57,16.57,0,0,1,9.38,4.77,16.87,16.87,0,0,1,4.94,9.38,17.63,17.63,0,0,1-4,13.49,16.62,16.62,0,0,1-12.67,5.43Zm0-28.79c-6.75,0-11.68,5.1-11.68,12.17S99.06,77,105.81,77s11.68-5.1,11.68-12.18S112.55,52.6,105.81,52.6Z"></path>
    <path id="Fill_20" data-name="Fill 20" class="cls-1" d="M132.3,80.9h-4.77a.78.78,0,0,1-.83-.83V49.47a.78.78,0,0,1,.83-.82h11.35a11.68,11.68,0,0,1,8.23,2.79,9.6,9.6,0,0,1,3,7.08,9.07,9.07,0,0,1-5.27,8.56l-.49.49v.66l7.07,11.51a.87.87,0,0,1-.33,1.16c-.16,0-.32.16-.49.16H145a.83.83,0,0,1-.66-.33l-6.75-11.68a.86.86,0,0,0-.66-.33h-3.29a.78.78,0,0,0-.82.82V80.4C133,80.57,132.63,80.9,132.3,80.9Zm1.48-26.66a.78.78,0,0,0-.82.82V62.3a.78.78,0,0,0,.82.83h4.11c3.46,0,5.6-1.65,5.6-4.45s-2-4.27-5.6-4.27Z"></path>
    <path id="Fill_22" data-name="Fill 22" class="cls-1" d="M164.22,72.83V49.31a.78.78,0,0,0-.82-.83h-7.08a.78.78,0,0,0-.82.83V80.24a.78.78,0,0,0,.82.82h20.24a.78.78,0,0,0,.82-.82h0V74.32a.78.78,0,0,0-.82-.83H164.88a.71.71,0,0,1-.66-.66"></path>
    <path id="Fill_24" data-name="Fill 24" class="cls-1" d="M195.15,81.06H182.48a.78.78,0,0,1-.82-.82V49.31a.78.78,0,0,1,.82-.83h12.67a17.52,17.52,0,0,1,12.51,4.45,15.84,15.84,0,0,1,4.6,11.84C212.26,74.64,205.52,81.06,195.15,81.06Zm-2.8-23.36a.78.78,0,0,0-.82.82h0V71.19a.78.78,0,0,0,.82.82h2.31a6.61,6.61,0,0,0,7.07-6.09v-1a6.62,6.62,0,0,0-6.09-7.08h-1Z"></path>
  </g>
</svg>
