<?xml version="1.0" encoding="UTF-8"?>
<svg preserveAspectRatio="xMidYMid slice" width="260px" height="100px" xmlns="http://www.w3.org/2000/svg" id="Layer_1" data-name="Layer 1" viewBox="0 0 260 100">
  <defs>
    <style>.cls-1{fill:#fff;}</style>
  </defs>
  <path class="cls-1" d="M184.57,68.78l-.49.41c-.73.65-1.47,1.3-2.36,1a1,1,0,0,1-.49-.65,13.31,13.31,0,0,1,1.55-5.2l.24-.41c2.28-3.82,5-8.37,8.86-11.46a2.13,2.13,0,0,1,2.12-.57,1.1,1.1,0,0,1,.4.73.88.88,0,0,1-.16.41c-1.06,1.79-2.11,3.66-3.17,5.45a63,63,0,0,1-6.5,10.32Zm-21.23-9A4.61,4.61,0,0,1,160,56.5c-.41-2.11,1.06-3.74,2.44-4.63a2.42,2.42,0,0,1,2.2-.41,2.11,2.11,0,0,1,.81,1.95,9.18,9.18,0,0,1-.16,1.47V55a22.68,22.68,0,0,1-2,4.8Zm-10.16,10a3.8,3.8,0,0,1-.41-1.3c-.08-2.93,3.09-8.13,5.29-11h0a8.49,8.49,0,0,0,4.31,3.9c-1.55,3.5-6.91,11-9.19,8.38Zm38.3.49c-.49.32-1.3.08-1-.74a38.3,38.3,0,0,1,3.42-6.34l7.56-13.5h-5.21c-.24.41-.81,1.31-.81,1.31a7.26,7.26,0,0,0-1.22-1.47,4.48,4.48,0,0,0-4.39.33c-5.61,3.25-9.67,9.75-12.93,14.8,0,0-3.41,5.61-5.28,6-1.47.08-1.3-1.87-1.22-2.36a35.56,35.56,0,0,1,3.25-9.35,78.59,78.59,0,0,0,8.62-7c6.1-5.85,11.22-12.44,12-13.9a10.31,10.31,0,0,1-1.79.16c-4.71,6.51-14.23,16-17.15,17.4,1.3-3.09,9.59-17.89,16.67-25l1.13-1.06c1.71-1.71,3.5-3.41,4.88-3.66.16,0,.33,0,.49.33a6.4,6.4,0,0,1-1,3.41l-.81,1.63,1.87-.41c.81-1.62,1.79-3.41,1.46-5.53a1.56,1.56,0,0,0-1.22-1.3c-2.11-.4-4.39,1.14-6.26,2.44l-.08.08c-9.51,7.48-17.56,18.22-24.55,32.85a5.38,5.38,0,0,1-2.85.65,24.24,24.24,0,0,0,2-5.45,11.91,11.91,0,0,0,.17-1.78,3.81,3.81,0,0,0-1.47-3.34,5.23,5.23,0,0,0-4.14.16c-5,2.12-8.78,7.24-11.47,11.47A25.45,25.45,0,0,0,146.84,70c-.24,2.6.32,4.23,1.79,5.12s3.41,0,4.14-.4c5.13-2.69,8.62-8,11.47-12.93a19.12,19.12,0,0,0,2.76-.33h.08l-.65,2c-1.78,5.2-2.6,8.78-.89,10.81,2.36,2.93,6.34-.08,9.59-4.15-.73,4.88,1.79,5.61,3.74,5.21,2.2-.57,4.64-2.93,5.78-4.15-.33,1.38-.25,3.9,1.7,4.23,1.39.24,2.44-.49,3.58-1.14C194.16,72,199.28,64.23,200.58,62h-1.7c-2,2.77-4.39,6.43-7.4,8.22Zm-65.7-28.87h4.88l2.76-4.47h-4.87Zm78-11.87c-3.74,2.11-7.56,3.5-12.27,3C190.18,34,189,35.45,187.74,37c6.58,1.63,13.49-2,17.4-5.53a28.18,28.18,0,0,0,6.18-8,34,34,0,0,1-7.57,6.1Zm-41.06-1.14c-.81,8.86-7.72,14.15-9.43,14.56-1,.24-2.84-.25-1.22-4a24.67,24.67,0,0,1,10.57-11.46,3.36,3.36,0,0,1,.08.89ZM149.2,50.81a3.08,3.08,0,0,0-2.93-1.7c-4.07.4-8.05,3.74-10.16,8.53A25.46,25.46,0,0,0,134,65.37a21.48,21.48,0,0,1,6.75-5.13,14.21,14.21,0,0,1,2.44-5.85c.73-1.14,2.28-3,4.07-2.52,1.54.49,1,4.72-1.06,8.7a26.93,26.93,0,0,1-6,8c-2,1.71-5,3.82-7.64,2.19-1.63-1-2.52-3-2.36-5.69.81-7.48,4.23-13.9,9.11-21.22,5-6.75,10.57-13.74,18.13-17.4a4.88,4.88,0,0,1,4.15-.49S154.48,29.84,151.15,37c-.81,1.79-2,4.31-.81,6.42a2.43,2.43,0,0,0,2.6,1.14c4.14-1,6.75-4.79,8.94-8.29,1.22-2.68,2.36-5.29,2.36-8.29a6.62,6.62,0,0,0-.08-1.22c2-1.06,6,.81,6,.81,3.18,1.06,9.84,6.18,12.12,7.15,1.14-1.3,2.93-3.25,3.9-4.14l-1.46-.9c-2.36-1.46-4.88-2.84-7.32-4.14A14.56,14.56,0,0,0,165,24.39a11.22,11.22,0,0,1-1.71.65c-1.7-1.87-4.55-1.71-6.58-1.22-7.48,2.11-14.39,7.4-21.79,16.42-5.45,7.08-8.87,13.26-10.65,19.27-1.39,4.07-1.79,10.09,1.54,13.66,2.93,3,6.75,2.36,9.43,1.3,5.86-2.84,11.14-9.1,13.74-16.26.65-2.11,1.39-5.12.25-7.4Zm-65-6.91-1,2.28a.9.9,0,0,1-.65,0l-.41-.08a4,4,0,0,1-2.76-2.44c-.41-2.12,1.38-3.82,2.19-4.47a2.35,2.35,0,0,1,2.68-.25,2.84,2.84,0,0,1,.57,1.87,8.7,8.7,0,0,1-.65,3.09Zm-2.11,4.31-.08.16L79.76,52c-1.38,1.79-3,4.07-5.12,5.13a1.72,1.72,0,0,1-2-.25c-.9-1.14-.49-2.68-.08-3.9l.16-.41a40.78,40.78,0,0,1,4.63-8.21h.08v.08A7.32,7.32,0,0,0,82.12,48v.08c.08-.08.08,0,0,.16Zm28-2.44a54.89,54.89,0,0,1,4.63-5.69c2.36-2.11,3.34-1.14,3.42-.49-2.2,4-4.88,8.54-7.32,12.69L110,53.41a11.27,11.27,0,0,1-4,4.07,1.39,1.39,0,0,1-1-.08.93.93,0,0,1-.41-1c.16-1.3,1.46-5.2,5.45-10.65Zm-24.72-9c-3.09-2-9.27,1.87-14.23,8.45-4.55,5.94-6.5,12.85-4.39,16.1,3.17,3.74,9-1.71,11.55-4.63l.32-.33a39.57,39.57,0,0,0,4.31-6.18s1.14-1.95,1.22-2a24.55,24.55,0,0,0,2.6-.65c0,.08-3.74,6.34-3.41,9.43.08,1,0,4.47,3.41,5.53,4.56.73,8.13-2.76,11.3-5.85a7.38,7.38,0,0,0,.82-.82c-.08.33-.16.73-.16.73-1.31,4.64.48,5.61,1.54,5.94,3.41,1,7.4-3.9,7.4-3.9-.08,1.54-.41,2.84,1.22,3.82,1.54.57,3.09-.33,4.31-1.06,4.23-3,7.72-7.72,10.49-11.79h-1.79s-4.39,6.26-7.16,7.65a1.11,1.11,0,0,1-.81.08c-.41-.33-.24-1,0-1.39L124.8,37h-5.12a10.64,10.64,0,0,0-.57,1,1.12,1.12,0,0,0-.16-.25c-3.17-4.47-10.41,2.28-15.77,10.08a52.54,52.54,0,0,1-7.48,8.87s-4.07,3.74-5.86,1a5.41,5.41,0,0,1-.08-3.9c2-5.77,5.53-11.06,9.51-14.23,1.14-.89,2.36-1.14,2.93-.73a1.37,1.37,0,0,1,.33,1.79,2.89,2.89,0,0,0-2.28.89C99,42.76,98.62,44,99,45.12c1.87,2.6,5.53-2.52,5.37-5.69a3.26,3.26,0,0,0-1.55-2.68,5.3,5.3,0,0,0-4.71.08c-1.79.65-4.56,3-6.18,4.8-2,2.27-5.61,4.79-6.67,4.55.16-1.06,3.17-7.16.08-9.43Zm25.78,33.09c-6-3.9-14.23-4.55-27.49-.9-14.14,3.34-18.86,5.45-25,1.14C56.26,68,55.37,64.64,56,59.76c1.46-8,5.45-15.53,12.52-24,4-4.39,7.64-8.21,12.44-9.67,3.74-1,3.33,1.95,2.93,2.35a3.36,3.36,0,0,0-1.87.49,5,5,0,0,0-2,3.33c-.09,2.61,2.52,2,3.74.66,1.22-1.63,3.09-4.64,1.62-7.48a4.25,4.25,0,0,0-2.92-2c-4.48-.24-8.54,1.87-12.36,4.23A53.78,53.78,0,0,0,51.38,50.16c-2.19,5.29-4.14,12.85-1.22,19,2.28,4.31,7,6.58,12.69,6.1A104.14,104.14,0,0,0,74.8,72.85c3.25-.82,19.68-6.43,25.12,3.41a7.36,7.36,0,0,1,6.35-3.58,20.82,20.82,0,0,1,12.92,3.91c-1.3-1.87-5-4.8-8-6.75Z"></path>
</svg>
