<?xml version="1.0" encoding="UTF-8"?>
<svg preserveAspectRatio="xMidYMid slice" width="260px" height="100px" xmlns="http://www.w3.org/2000/svg" id="Layer_1" data-name="Layer 1" viewBox="0 0 260 100">
  <defs>
    <style>.cls-1{fill:#fff;}</style>
  </defs>
  <g id="surface1">
    <path class="cls-1" d="M84.44,57.77A16.93,16.93,0,0,0,84.09,54a3.31,3.31,0,0,0-.17-.56,3.88,3.88,0,0,0-2-2.31,5.13,5.13,0,0,0-1-.35c-.17,0-.36-.06-.54-.11-.67-.13-1.42-.25-2.16-.34a37.44,37.44,0,0,0-5.6,0l-.43,0c-.86,0-1.71.11-2.55.17a3.58,3.58,0,0,0-1.49.48.7.7,0,0,0-.24.17,1.83,1.83,0,0,0-.37.8,2,2,0,0,0,0,.69,2,2,0,0,0,1,1.3,2.75,2.75,0,0,0,1,.32l1.19.13h0a.16.16,0,0,1,.09,0,16.07,16.07,0,0,1,5.6,1.75c.23.18.47.37.71.59l.15.15.26.26c.09.11.17.21.26.3a5.56,5.56,0,0,1,.6.8,1.67,1.67,0,0,0,.16.24,8,8,0,0,1,.51,1.21c.09.28.2.67.31,1.12h0a20.39,20.39,0,0,1,.39,2.38c0,.15,0,.3,0,.45v.07h0l.06.84a.34.34,0,0,0,0,.18c0,.1,0,.21,0,.34a.47.47,0,0,0,0,.17s0,0,0,.09a2.43,2.43,0,0,0,.8,1.54,2,2,0,0,0,1.13.45h.15a1.86,1.86,0,0,0,.34,0,2.23,2.23,0,0,0,.83-.41s0,0,0,0a2.69,2.69,0,0,0,.52-1.19,1.09,1.09,0,0,0,0-.26l.09-.82c.1-1,.19-1.88.3-2.83l.06-.56h0c0-.13,0-.33.09-.78v-.06c0-.07,0-.13,0-.2,0-.5,0-1.06.07-1.43l-.07-.88h0"></path>
    <path class="cls-1" d="M184.6,32.8v7h8.19V67.5h7.33V39.76h8.19v-7H184.6"></path>
    <path class="cls-1" d="M181.14,39.76v-7H157.47V67.5h7.32V53.94h14.6V47h-14.6V39.76h16.35"></path>
    <path class="cls-1" d="M143.41,57.75a10.65,10.65,0,0,1-15.26,0A10.76,10.76,0,0,1,125,49.92a10.68,10.68,0,0,1,3.11-7.82,10.63,10.63,0,0,1,15.26,0,11.37,11.37,0,0,1,0,15.65ZM135.78,32a17.91,17.91,0,0,0-13,5.12,17.22,17.22,0,0,0-5.25,12.8,17.29,17.29,0,0,0,5.25,12.8,19,19,0,0,0,25.92,0A17.3,17.3,0,0,0,154,49.92a17.3,17.3,0,0,0-5.26-12.8,18,18,0,0,0-13-5.12"></path>
    <path class="cls-1" d="M111.7,50.12a19.23,19.23,0,0,0-8-3.64c-4.06-1-5.68-1.7-6.33-2.16A2.57,2.57,0,0,1,96.2,42a2.44,2.44,0,0,1,1.15-2.25,6.5,6.5,0,0,1,3.5-.84,14,14,0,0,1,4.62.8,10.27,10.27,0,0,1,3.66,2l.73.67,4-5.68-.62-.52a16.9,16.9,0,0,0-5.67-3.07A21,21,0,0,0,101,32a14.36,14.36,0,0,0-8.75,2.64,9.14,9.14,0,0,0-3.68,7.76c0,3.33,1.11,5.83,3.25,7.48a13.22,13.22,0,0,0,3.58,2,46.19,46.19,0,0,0,5.62,1.64,14.84,14.84,0,0,1,4.8,1.8A2.54,2.54,0,0,1,107,57.62,2.7,2.7,0,0,1,105.76,60,6.25,6.25,0,0,1,102,61c-3.35,0-6.64-1.39-9.78-4.11l-.69-.61L87,61.79l.65.56a21,21,0,0,0,14.29,5.56A13.83,13.83,0,0,0,111,65a9.53,9.53,0,0,0,3.56-7.67c0-3.16-.93-5.58-2.83-7.22"></path>
    <path class="cls-1" d="M59.93,45.71a9.93,9.93,0,0,1,6.78-6.42c.33-.09.67-.16,1-.22a12.25,12.25,0,0,1,2.2-.2h.16a13.76,13.76,0,0,1,8.51,3.07l.46.41,1.81-2.57,1.8-2.7A17.38,17.38,0,0,0,75,32.8a18.2,18.2,0,0,0-4-.63c-.37,0-.76,0-1.12,0a18,18,0,0,0-13,5.12,16.77,16.77,0,0,0-4.9,9,3.29,3.29,0,0,1-.09.43s0,.08,0,.15,0,.09,0,.13,0,.35-.07.54,0,.26,0,.39,0,.26,0,.39A13.51,13.51,0,0,0,51.69,50v.09h0c0,.28,0,.56,0,.82a19.49,19.49,0,0,0,.76,4.69,17.29,17.29,0,0,0,4.47,7.31A17.62,17.62,0,0,0,67.1,67.82h0a18.9,18.9,0,0,0,6.83-.3l1-.28a13.29,13.29,0,0,0,3-1.45l1.36-.89a18.68,18.68,0,0,0-.8-5.06,5.87,5.87,0,0,0-.48-1.08l-.13-.19a.81.81,0,0,0-.17-.24l-.22.17a15.45,15.45,0,0,1-2.18,1.37A14.39,14.39,0,0,1,71.43,61a2,2,0,0,1-.31,0,3.44,3.44,0,0,1-.43,0h0a12.34,12.34,0,0,1-2.53,0,11.26,11.26,0,0,1-1.45-.28,10.18,10.18,0,0,1-7.09-7.4.65.65,0,0,1,0-.19,2.63,2.63,0,0,0-.09-.3,16.16,16.16,0,0,1-.28-1.76,3.54,3.54,0,0,1,0-.47v0c0-.11,0-.2,0-.31a1.56,1.56,0,0,0,0-.3c0-.17,0-.32,0-.47a10.82,10.82,0,0,1,.76-3.89"></path>
  </g>
</svg>
