<?xml version="1.0" encoding="UTF-8"?>
<svg xmlns="http://www.w3.org/2000/svg" id="Layer_1" data-name="Layer 1" viewBox="0 0 260 100">
  <defs>
    <style>.cls-1{fill:#fff;}</style>
  </defs>
  <path class="cls-1" d="M166,52.8a10.55,10.55,0,0,0-2.89-7.67c-2.52-2.52-6.65-3.92-12.93-3.92h-9.79a5.69,5.69,0,0,0-5.5,4.22L126.1,78.28a.39.39,0,0,0,.37.48h9.7a.34.34,0,0,0,.33-.26l7.6-28.26s0,0,0,0h5.62c2.2,0,3.75.42,4.61,1.28a3.54,3.54,0,0,1,1,2.52c0,3.22-3.06,5.21-7.73,5.21h-2.43A3,3,0,0,0,142.08,62a2.81,2.81,0,0,0,.22,1.23l5,9.82A9.48,9.48,0,0,0,156,78.76h4.13a6.56,6.56,0,0,0,3.05-.47.16.16,0,0,0,0-.26,17.6,17.6,0,0,1-3.86-4.74l-4.52-7.17s0,0,0,0C162.46,64,166,59.07,166,52.8Z"></path>
  <path class="cls-1" d="M72.86,64.43h6.77l-1.5,5a11.59,11.59,0,0,1-5,1c-4.61,0-8.42-2.73-8.42-8A12.51,12.51,0,0,1,77.49,49.74a12.76,12.76,0,0,1,9,3.59.39.39,0,0,0,.55,0l6.5-6.3a.31.31,0,0,0,0-.41c-2.64-3.23-8-6.16-15.38-6.16C63.86,40.46,54.1,51,54.1,62.93c0,11.53,9.12,16.57,18.08,16.57A28.15,28.15,0,0,0,85.83,76a1.15,1.15,0,0,0,.53-.67l5.11-18a.36.36,0,0,0-.35-.45H78.77a5.67,5.67,0,0,0-5.5,4.24L72.51,64A.36.36,0,0,0,72.86,64.43Z"></path>
  <path class="cls-1" d="M199.84,41.22a5.67,5.67,0,0,0-5.48,4.2l-4.45,16.44c-.8,3-1.77,4.88-3.16,6.22a7,7,0,0,1-5.05,2c-3.75,0-5.84-2.09-5.84-5.47a13.6,13.6,0,0,1,.53-3.54l5.2-19.4a.36.36,0,0,0-.35-.45h-5.69a5.68,5.68,0,0,0-5.49,4.2l-4,14.9a24.44,24.44,0,0,0-.85,6c0,8.26,5.52,13.14,15.18,13.15,5.79,0,10.51-1.51,13.83-4.83,2.63-2.63,4.51-6.28,5.85-11.21l5.84-21.75a.36.36,0,0,0-.35-.45Z"></path>
  <path class="cls-1" d="M126.89,41.22a5.68,5.68,0,0,0-5.48,4.19L117,61.86c-.8,3-1.76,4.88-3.16,6.22a7,7,0,0,1-5,2c-3.76,0-5.85-2.09-5.85-5.47a13.2,13.2,0,0,1,.54-3.54l5.19-19.4a.36.36,0,0,0-.35-.45H102.6a5.66,5.66,0,0,0-5.48,4.2l-4,14.9a24.44,24.44,0,0,0-.85,6c0,8.26,5.52,13.14,15.18,13.15,5.79,0,10.51-1.51,13.83-4.83,2.63-2.63,4.51-6.28,5.85-11.21l5.83-21.75a.35.35,0,0,0-.34-.45Z"></path>
  <path class="cls-1" d="M158.12,38.14c5.18-2.16,8.42-6,10.58-9.06a8,8,0,0,1,6.61-3.74h10.27a.35.35,0,0,1,.34.46c-2.19,7.53-8.56,12.47-15.36,12.47l-12.42,0A.09.09,0,0,1,158.12,38.14Z"></path>
  <path class="cls-1" d="M147.45,37.85a.36.36,0,0,0,.36.46c17-.39,21.34-15.69,21.58-16.54L171.83,13a.35.35,0,0,0-.35-.45H165c-6.57,0-11.35,2.34-12.9,8Z"></path>
</svg>
