<?xml version="1.0" encoding="UTF-8"?>
<svg xmlns="http://www.w3.org/2000/svg" id="Layer_1" data-name="Layer 1" viewBox="0 0 260 100">
  <defs>
    <style>.cls-1{fill:#fff;}</style>
  </defs>
  <path class="cls-1" d="M71.87,25.44H76.2c1.67,2.83,3.23,5.71,5,8.48,1.65-2.83,3.26-5.65,4.91-8.48,1.44,0,2.88,0,4.32,0V47.6H85.81c0-4.25,0-8.51,0-12.76-1.16,1.79-2,3.75-3.06,5.6h-3.2C78.8,39,78,37.64,77.3,36.23a5.16,5.16,0,0,0-.86-1.35c0,4.24,0,8.48,0,12.69H71.88V25.44Zm37.39,4.44a4.56,4.56,0,0,0-4.32-4.44c-1.88,0-3.78,0-5.66,0a4.52,4.52,0,0,0-4,4.47V43.21a4.54,4.54,0,0,0,3.15,4.16,15.28,15.28,0,0,0,4,.23c1.5-.06,3.08.23,4.44-.52a4.56,4.56,0,0,0,2.48-4.16c0-4.32,0-8.68,0-13ZM104.64,43l-.26.26c-1.5.06-3,0-4.47,0-.2-3.75,0-7.53-.09-11.28a9.08,9.08,0,0,1,.12-2.14,39.29,39.29,0,0,1,4.73,0c0,4.39,0,8.75,0,13.1Zm9.41-17.51h4.33c1.67,2.83,3.26,5.69,5,8.48,1.64-2.83,3.29-5.65,4.9-8.51h4.39c-.12,7.39.06,14.77,0,22.13H128c0-4.27,0-8.54,0-12.78-1.16,1.82-2,3.78-3.09,5.65h-3.2c-1-1.87-2-3.78-3-5.65-.17,4.27,0,8.54,0,12.81h-4.59V25.44Zm23.37,0h13.79V29.8H142V34h7.81v4.35H142V43.3h9.4v4.35h-14V25.44Zm18.05,0h4.27c1.71,3.43,3.47,6.84,5.17,10.3a4.71,4.71,0,0,0,.55.87c0-3.72,0-7.45,0-11.14,1.53,0,3,0,4.58,0V47.62H165.8c-1.9-3.72-3.72-7.5-5.68-11.19-.15,3.72,0,7.47-.06,11.19h-4.59q0-11.11,0-22.18Zm18.24,0h13.84V29.8h-4.64V47.62h-4.56V29.8h-4.64ZM71.87,74.54V52.39H85.63v4.32h-9.2v4.91c2.63,0,5.22,0,7.85,0V66c-2.6,0-5.22,0-7.85,0v8.6C74.93,74.54,73.4,74.54,71.87,74.54ZM92,52.39c1.7,0,3.41,0,5.11,0C99,59.8,101,67.19,102.86,74.57H98.15c-1.21-4.9-2.36-9.84-3.55-14.77a3.92,3.92,0,0,0-.52,1.61C93,65.8,92,70.18,91,74.57H86.3C88.2,67.15,90.05,59.74,92,52.39Zm16.3.29c1.79-.58,3.72-.18,5.57-.32a4.7,4.7,0,0,1,4.58,2.31c.9,1.53.47,3.34.55,5h-4.53a8.6,8.6,0,0,0-.2-3c-1.41.05-2.83,0-4.24,0-.14,4.47-.06,8.95,0,13.42q2.25.08,4.5,0c.06-1,.06-2,.06-2.94h4.56c-.06,1.75.31,3.72-.75,5.28a4.77,4.77,0,0,1-4.5,2c-2-.14-4.13.41-6-.52a4.56,4.56,0,0,1-2.48-4.27v-13a4.49,4.49,0,0,1,2.91-4.06Zm13.76-.29h13.5v4.35H131.1V74.57h-4.59V56.77h-4.44Zm30.58,17.1c0-4.24,0-8.45,0-12.69a4.55,4.55,0,0,0-4.76-4.38c-2.07.11-4.18-.27-6.2.26a4.6,4.6,0,0,0-3.06,4.38v13a4.58,4.58,0,0,0,4.42,4.47c1.78,0,3.6,0,5.39,0A4.65,4.65,0,0,0,152.65,69.49Zm-4.68.64a29.88,29.88,0,0,1-4.73,0c0-4.39,0-8.75,0-13.13l.26-.26c1.5-.05,3,0,4.47,0,.2,3.47,0,6.95.09,10.45A16.34,16.34,0,0,1,148,70.13Zm20.75-3.81a4.7,4.7,0,0,0,2.05-3.75c0-1.9,0-3.84,0-5.74a4.58,4.58,0,0,0-4.39-4.41c-3.15,0-6.26,0-9.38,0V74.57h4.59V67h2.8c.86,2.51,1.73,5,2.57,7.53h4.75c-1-2.74-2-5.51-3-8.25Zm-2.57-3.67c-1.53.09-3.06,0-4.61.06V56.77c1.53.12,3.11-.2,4.58.17A54.35,54.35,0,0,1,166.15,62.65Zm7-10.26h4.67c.87,2.57,1.68,5.13,2.51,7.7a2.26,2.26,0,0,0,.43.81c.93-2.83,1.79-5.68,2.74-8.51,1.56,0,3.12,0,4.65,0C186.4,57,184.67,61.54,183,66.13c-.11,2.79,0,5.62-.05,8.42h-4.56V66.84a5.31,5.31,0,0,0-.58-2.14c-1.52-4.09-3.08-8.22-4.64-12.31Z"></path>
</svg>
