<?xml version="1.0" encoding="UTF-8"?>
<svg xmlns="http://www.w3.org/2000/svg" id="Layer_1" data-name="Layer 1" viewBox="0 0 260 100">
  <defs>
    <style>.cls-1{fill:#fff;}</style>
  </defs>
  <path class="cls-1" d="M98.78,68.05H76.56c-.51,0-.51-.08-.51-.69V34.64c0-.43-.09-.52.43-.52h22c.52,0,.52.09.52.69v6.11c0,.43-.17.69-.52.69l-14-.17v5.68H98.18c.43,0,.52.09.52.69v6.12c0,.6-.09.69-.52.69H84.57v5.77l14.3-.17c.52,0,.52,0,.52.68v6.46c0,.61-.09.69-.61.69"></path>
  <path class="cls-1" d="M119.8,58.41s-3.45,5.85-5.26,8.61c-.43.6-.69,1-1.37,1-3.36,0-3.71.09-7.41,0-.52,0-.6-.43-.43-.77,4.13-6.38,10.07-15.94,10.07-15.94s-7.23-11.71-10.24-16.53c-.18-.17-.26-.69.25-.69h8.53c.52,0,.86.09,1.38.86,1.55,2.5,5.42,8.53,5.42,8.53l4.48,7.06Z"></path>
  <path class="cls-1" d="M130.39,58.41s3.45,5.85,5.25,8.61c.43.6.69,1,1.38,1,3.36,0,3.71.09,7.41,0,.52,0,.6-.43.43-.77-4.13-6.38-10.08-15.94-10.08-15.94S142,39.63,145.12,34.72c.17-.17.26-.69-.26-.69h-8.53c-.51,0-.86.09-1.38.86-1.55,2.59-5.42,8.62-5.42,8.62l-4.48,7.06Z"></path>
  <path class="cls-1" d="M166,33a18,18,0,1,0,18,18A18,18,0,0,0,166,33Zm0,27.73c-4.82,0-8.7-4.3-8.7-9.56s3.88-9.56,8.7-9.56,8.7,4.31,8.7,9.56S170.78,60.73,166,60.73Z"></path>
</svg>
