<?xml version="1.0" encoding="UTF-8"?>
<svg xmlns="http://www.w3.org/2000/svg" id="Layer_1" data-name="Layer 1" viewBox="0 0 260 100">
  <defs>
    <style>.cls-1{fill:#fff;}</style>
  </defs>
  <path class="cls-1" d="M38.86,37.1h5.93l7.74,21h.1l7.78-21h5.75V62.94h-4V40.61h-.09L53.89,62.94h-3.4L42.31,40.61h-.1V62.94H38.86M69.17,54c0-6,2.82-9.34,8.52-9.34S86.2,48,86.2,54s-2.87,9.34-8.51,9.34S69.17,60.07,69.17,54Zm8.47,7.74c3.65,0,4.09-4.48,4.09-7.74s-.44-7.74-4.09-7.74-4,4.48-4,7.74.44,7.74,4,7.74ZM89.37,45.09h4.08v4.23h.1a7.5,7.5,0,0,1,6.77-4.62c3.4,0,4.86,2.62,4.86,5.2v13h-4.09V51.75c0-2.24-.38-4.28-2.43-4.28-4,0-5.16,5.84-5.16,8v7.4H89.42l0-17.81Zm30.41,18a13.59,13.59,0,0,1-2.82.24c-3.85,0-6.08-1.07-6.08-4.52V47h-3.07V45.09h3.07V40.9L115,38.61v6.48h5.26V47H115V57.3c0,2.63.3,3.89,2.92,3.89a6,6,0,0,0,1.9-.29v2.19Zm3.07-18h4.08v4.52h.1c1.32-2.38,2.73-4.67,6.23-5v3.94c-3.94.1-6.33,1.36-6.33,6.13V62.9h-4.08V45.09Zm21.46,18.24c-5.36,0-9.64-2.92-9.64-10.12,0-5,2.14-8.56,8.23-8.56s7.39,3.84,7.39,7.3H138.76c0,3.5,1.7,9.34,7.49,9.34a9.76,9.76,0,0,0,3.7-.73v1.7a13,13,0,0,1-5.64,1.07Zm2-13c0-1.36-.53-4-3.55-4s-3.75,3-3.84,4ZM143.38,37.1h4.28L143.72,42h-3l2.67-4.87Zm20,23.36h-.09a6.18,6.18,0,0,1-5.41,2.87c-3,0-5.25-2-5.25-4.47,0-5.5,8.22-5.79,10.75-5.89V51.41c0-1.95,0-5.16-2.72-5.16-2.53,0-3,1.8-3.12,3.9h-4.28c.2-2.68,1.32-5.45,7.4-5.45,6.28,0,6.81,3.26,6.81,6.76V62.94h-4.09V60.46Zm0-5.89c-1.7.1-6.32.44-6.32,3.75A2.43,2.43,0,0,0,159.34,61a4.2,4.2,0,0,0,3.95-4.33l0-2.1Zm8.32-17.47h4.09V62.94h-4.09"></path>
  <path class="cls-1" d="M201.73,33.6a6.71,6.71,0,0,0-5.4-3A6.34,6.34,0,0,0,190,37.06a6.55,6.55,0,0,0,.2,1.46,9.54,9.54,0,0,0-1.46-.2,6.32,6.32,0,0,0-6.48,6.33,6.63,6.63,0,0,0,3.07,5.4,6.3,6.3,0,0,0,3.46,11.68,6.94,6.94,0,0,0,1.41-.2,5.86,5.86,0,0,0-.2,1.41,6.39,6.39,0,0,0,6.38,6.48,6.5,6.5,0,0,0,5.35-3,6.92,6.92,0,0,0,5.4,3,6.33,6.33,0,0,0,6.33-6.48,6.07,6.07,0,0,0-.2-1.41,5.91,5.91,0,0,0,1.46.2A6.36,6.36,0,0,0,218.18,50a6.62,6.62,0,0,0,3-5.35,6.42,6.42,0,0,0-6.52-6.33,6.94,6.94,0,0,0-1.41.2,10.53,10.53,0,0,0,.2-1.46,6.33,6.33,0,0,0-6.33-6.48,6.68,6.68,0,0,0-5.35,3Zm-8.37,6.47h0A4.39,4.39,0,0,1,192,37h0a4.34,4.34,0,0,1,7.4-3.07A4.27,4.27,0,0,1,200.71,37V47a2,2,0,0,1-1.9,2H188.74a4.36,4.36,0,0,1-3.07-1.27,4.14,4.14,0,0,1-1.22-3,4.32,4.32,0,0,1,4.29-4.33,4.35,4.35,0,0,1,3.11,1.31l.49.49a2.28,2.28,0,0,0-.2.92,2.62,2.62,0,0,0,2.63,2.63,2.49,2.49,0,0,0,1.8-.73,2.7,2.7,0,0,0,0-3.8,2.57,2.57,0,0,0-1.85-.73,1.78,1.78,0,0,0-.88.2,4.72,4.72,0,0,0-.48-.54ZM202.8,37a4.39,4.39,0,0,1,1.26-3.07,4.35,4.35,0,0,1,6.09.05,4.49,4.49,0,0,1,1.26,3h0a4.14,4.14,0,0,1-1.31,3.11l-.49.49a2.35,2.35,0,0,0-.92-.15,2.65,2.65,0,0,0-2.63,2.63,2.49,2.49,0,0,0,.73,1.8,2.77,2.77,0,0,0,1.9.78h0a2.83,2.83,0,0,0,1.89-.78,2.49,2.49,0,0,0,.73-1.8h0a1.79,1.79,0,0,0-.19-.88c.1-.09.49-.53.49-.53a4.39,4.39,0,0,1,3.11-1.32,4.34,4.34,0,0,1,3.07,7.4A4.27,4.27,0,0,1,214.72,49h-10a2,2,0,0,1-1.9-1.9V37ZM185.67,58.52a4.58,4.58,0,0,1-1.31-3.07,4.3,4.3,0,0,1,4.33-4.33h10a2,2,0,0,1,1.95,1.9V63.09a4.32,4.32,0,0,1-1.32,3.07,4.14,4.14,0,0,1-3,1.21A4.3,4.3,0,0,1,192,63.09h0A4.33,4.33,0,0,1,193.31,60l.49-.49a2.35,2.35,0,0,0,.92.15A2.62,2.62,0,0,0,197.35,57a2.48,2.48,0,0,0-.73-1.8,2.7,2.7,0,0,0-3.8,0,2.52,2.52,0,0,0-.73,1.8h0a1.7,1.7,0,0,0,.2.87l-.49.54a4.39,4.39,0,0,1-3.11,1.31,4.44,4.44,0,0,1-3-1.21Zm18.44,7.59A4.35,4.35,0,0,1,202.8,63V53a2,2,0,0,1,1.9-1.9h10.07a4.31,4.31,0,0,1,0,8.61,4.18,4.18,0,0,1-3.12-1.31l-.48-.49a2.58,2.58,0,0,0,.14-.92h0a2.64,2.64,0,0,0-2.62-2.63,2.46,2.46,0,0,0-1.8.73,2.7,2.7,0,0,0,0,3.8,2.53,2.53,0,0,0,1.84.73,1.78,1.78,0,0,0,.88-.2l.54.49A4.39,4.39,0,0,1,211.51,63h0a4.33,4.33,0,0,1-4.33,4.33,4.38,4.38,0,0,1-3.07-1.26Z"></path>
</svg>
